<svg xmlns="http://www.w3.org/2000/svg" width="1180" height="520" viewBox="0 0 1180 520">
  <rect width="1180" height="520" fill="#f8fafc"/>
  <text x="590" y="44" text-anchor="middle" font-size="30" font-family="Arial" fill="#0f172a">Interface Contract and Strategy Replacement</text>

  <rect x="90" y="90" width="1000" height="380" rx="14" fill="#eef2ff" stroke="#4f46e5" stroke-width="3"/>

  <rect x="460" y="130" width="260" height="90" rx="10" fill="#dbeafe" stroke="#2563eb" stroke-width="2"/>
  <text x="590" y="172" text-anchor="middle" font-size="24" font-family="Arial" fill="#1e3a8a">PaymentService</text>
  <text x="590" y="198" text-anchor="middle" font-size="16" font-family="Courier New" fill="#1e3a8a">pay(amount)</text>

  <rect x="170" y="280" width="220" height="90" rx="10" fill="#dcfce7" stroke="#16a34a" stroke-width="2"/>
  <text x="280" y="320" text-anchor="middle" font-size="22" font-family="Arial" fill="#166534">CardPayment</text>
  <text x="280" y="344" text-anchor="middle" font-size="14" font-family="Arial" fill="#166534">implements pay()</text>

  <rect x="480" y="280" width="220" height="90" rx="10" fill="#dcfce7" stroke="#16a34a" stroke-width="2"/>
  <text x="590" y="320" text-anchor="middle" font-size="22" font-family="Arial" fill="#166534">KakaoPay</text>
  <text x="590" y="344" text-anchor="middle" font-size="14" font-family="Arial" fill="#166534">implements pay()</text>

  <rect x="790" y="280" width="220" height="90" rx="10" fill="#dcfce7" stroke="#16a34a" stroke-width="2"/>
  <text x="900" y="320" text-anchor="middle" font-size="22" font-family="Arial" fill="#166534">BankTransfer</text>
  <text x="900" y="344" text-anchor="middle" font-size="14" font-family="Arial" fill="#166534">implements pay()</text>

  <rect x="460" y="400" width="260" height="48" rx="8" fill="#fee2e2" stroke="#dc2626" stroke-width="2"/>
  <text x="590" y="430" text-anchor="middle" font-size="16" font-family="Arial" fill="#991b1b">Client depends on interface, not concrete class</text>

  <g stroke="#334155" stroke-width="2.5" fill="none" marker-end="url(#arrow)">
    <line x1="520" y1="280" x2="560" y2="224"/>
    <line x1="590" y1="280" x2="590" y2="224"/>
    <line x1="860" y1="280" x2="620" y2="224"/>
  </g>

  <defs>
    <marker id="arrow" markerWidth="10" markerHeight="10" refX="9" refY="5" orient="auto">
      <path d="M0,0 L10,5 L0,10 Z" fill="#334155"/>
    </marker>
  </defs>
</svg>

