<svg xmlns="http://www.w3.org/2000/svg" width="1180" height="520" viewBox="0 0 1180 520">
  <rect width="1180" height="520" fill="#f8fafc"/>
  <text x="590" y="44" text-anchor="middle" font-size="30" font-family="Arial" fill="#0f172a">java.time Type Map</text>

  <rect x="80" y="90" width="1000" height="380" rx="14" fill="#eef2ff" stroke="#4f46e5" stroke-width="3"/>

  <rect x="470" y="130" width="240" height="70" rx="10" fill="#dbeafe" stroke="#2563eb" stroke-width="2"/>
  <text x="590" y="172" text-anchor="middle" font-size="22" font-family="Arial" fill="#1e3a8a">Instant</text>

  <rect x="160" y="250" width="220" height="70" rx="10" fill="#dcfce7" stroke="#16a34a" stroke-width="2"/>
  <text x="270" y="292" text-anchor="middle" font-size="20" font-family="Arial" fill="#166534">LocalDate</text>

  <rect x="420" y="250" width="220" height="70" rx="10" fill="#dcfce7" stroke="#16a34a" stroke-width="2"/>
  <text x="530" y="292" text-anchor="middle" font-size="20" font-family="Arial" fill="#166534">LocalTime</text>

  <rect x="680" y="250" width="220" height="70" rx="10" fill="#dcfce7" stroke="#16a34a" stroke-width="2"/>
  <text x="790" y="292" text-anchor="middle" font-size="20" font-family="Arial" fill="#166534">LocalDateTime</text>

  <rect x="940" y="250" width="120" height="70" rx="10" fill="#fee2e2" stroke="#dc2626" stroke-width="2"/>
  <text x="1000" y="292" text-anchor="middle" font-size="20" font-family="Arial" fill="#991b1b">ZoneId</text>

  <rect x="420" y="370" width="220" height="60" rx="10" fill="#fef3c7" stroke="#d97706" stroke-width="2"/>
  <text x="530" y="406" text-anchor="middle" font-size="18" font-family="Arial" fill="#92400e">Duration (time amount)</text>

  <rect x="680" y="370" width="220" height="60" rx="10" fill="#fef3c7" stroke="#d97706" stroke-width="2"/>
  <text x="790" y="406" text-anchor="middle" font-size="18" font-family="Arial" fill="#92400e">Period (date amount)</text>

  <g stroke="#334155" stroke-width="2.5" fill="none" marker-end="url(#arrow)">
    <line x1="590" y1="200" x2="790" y2="248"/>
    <line x1="590" y1="200" x2="270" y2="248"/>
    <line x1="590" y1="200" x2="530" y2="248"/>
    <line x1="900" y1="285" x2="938" y2="285"/>
    <line x1="790" y1="320" x2="790" y2="368"/>
    <line x1="530" y1="320" x2="530" y2="368"/>
  </g>

  <defs>
    <marker id="arrow" markerWidth="10" markerHeight="10" refX="9" refY="5" orient="auto">
      <path d="M0,0 L10,5 L0,10 Z" fill="#334155"/>
    </marker>
  </defs>
</svg>

